<?xml version="1.0" encoding="UTF-8"?>
<svg version="1.1" xmlns="http://www.w3.org/2000/svg" width="3334" height="3334">
<path d="M0 0 C1100.22 0 2200.44 0 3334 0 C3334 1100.22 3334 2200.44 3334 3334 C2233.78 3334 1133.56 3334 0 3334 C0 2233.78 0 1133.56 0 0 Z " fill="#F7AF44" transform="translate(0,0)"/>
<path d="M0 0 C536.25 0 1072.5 0 1625 0 C1625 203.61 1625 407.22 1625 617 C1618.73 621.29 1612.46 625.58 1606 630 C1595.80074141 636.99142726 1585.63618025 644.02978818 1575.48925781 651.09692383 C1569.38651426 655.3455737 1563.26991607 659.57282483 1557.13671875 663.77734375 C1551.23933134 667.82504142 1545.36948137 671.91197692 1539.5 676 C1529.74085675 682.7963332 1519.95288565 689.54886375 1510.14355469 696.27246094 C1500.56428135 702.8403909 1491.0207879 709.45834977 1481.48999023 716.09643555 C1475.38698509 720.34522294 1469.27015803 724.57265896 1463.13671875 728.77734375 C1457.23933134 732.82504142 1451.36948137 736.91197692 1445.5 741 C1435.74085675 747.7963332 1425.95288565 754.54886375 1416.14355469 761.27246094 C1406.56428135 767.8403909 1397.0207879 774.45834977 1387.48999023 781.09643555 C1381.38698509 785.34522294 1375.27015803 789.57265896 1369.13671875 793.77734375 C1363.23933134 797.82504142 1357.36948137 801.91197692 1351.5 806 C1341.74085675 812.7963332 1331.95288565 819.54886375 1322.14355469 826.27246094 C1312.56428135 832.8403909 1303.0207879 839.45834977 1293.48999023 846.09643555 C1287.38698509 850.34522294 1281.27015803 854.57265896 1275.13671875 858.77734375 C1269.23933134 862.82504142 1263.36948137 866.91197692 1257.5 871 C1247.74085675 877.7963332 1237.95288565 884.54886375 1228.14355469 891.27246094 C1218.56428135 897.8403909 1209.0207879 904.45834977 1199.48999023 911.09643555 C1193.38698509 915.34522294 1187.27015803 919.57265896 1181.13671875 923.77734375 C1175.23933134 927.82504142 1169.36948137 931.91197692 1163.5 936 C1153.74085675 942.7963332 1143.95288565 949.54886375 1134.14355469 956.27246094 C1124.56428135 962.8403909 1115.0207879 969.45834977 1105.48999023 976.09643555 C1099.38698509 980.34522294 1093.27015803 984.57265896 1087.13671875 988.77734375 C1081.23933134 992.82504142 1075.36948137 996.91197692 1069.5 1001 C1059.74085675 1007.7963332 1049.95288565 1014.54886375 1040.14355469 1021.27246094 C1030.56428135 1027.8403909 1021.0207879 1034.45834977 1011.48999023 1041.09643555 C1005.38698509 1045.34522294 999.27015803 1049.57265896 993.13671875 1053.77734375 C987.23933134 1057.82504142 981.36948137 1061.91197692 975.5 1066 C965.74085675 1072.7963332 955.95288565 1079.54886375 946.14355469 1086.27246094 C936.56428135 1092.8403909 927.0207879 1099.45834977 917.48999023 1106.09643555 C911.38698509 1110.34522294 905.27015803 1114.57265896 899.13671875 1118.77734375 C893.23933134 1122.82504142 887.36948137 1126.91197692 881.5 1131 C871.74085675 1137.7963332 861.95288565 1144.54886375 852.14355469 1151.27246094 C842.56428135 1157.8403909 833.0207879 1164.45834977 823.48999023 1171.09643555 C817.38698509 1175.34522294 811.27015803 1179.57265896 805.13671875 1183.77734375 C799.23933134 1187.82504142 793.36948137 1191.91197692 787.5 1196 C777.74085675 1202.7963332 767.95288565 1209.54886375 758.14355469 1216.27246094 C748.56428135 1222.8403909 739.0207879 1229.45834977 729.48999023 1236.09643555 C723.38698509 1240.34522294 717.27015803 1244.57265896 711.13671875 1248.77734375 C705.23933134 1252.82504142 699.36948137 1256.91197692 693.5 1261 C683.74085675 1267.7963332 673.95288565 1274.54886375 664.14355469 1281.27246094 C654.56428135 1287.8403909 645.0207879 1294.45834977 635.48999023 1301.09643555 C629.38698509 1305.34522294 623.27015803 1309.57265896 617.13671875 1313.77734375 C611.23933134 1317.82504142 605.36948137 1321.91197692 599.5 1326 C589.74085675 1332.7963332 579.95288565 1339.54886375 570.14355469 1346.27246094 C560.56428135 1352.8403909 551.0207879 1359.45834977 541.48999023 1366.09643555 C535.38698509 1370.34522294 529.27015803 1374.57265896 523.13671875 1378.77734375 C516.24457016 1383.50780012 509.3889672 1388.2906702 502.5300293 1393.0690918 C495.99536321 1397.61919196 489.44621923 1402.14721292 482.87109375 1406.63867188 C479.85970116 1408.69996353 476.92126192 1410.80905356 474 1413 C863.4 1413.33 1252.8 1413.66 1654 1414 C1654 1500.46 1654 1586.92 1654 1676 C1095.97 1676 537.94 1676 -37 1676 C-37 1589.54 -37 1503.08 -37 1414 C-18.81497797 1401.49779736 -18.81497797 1401.49779736 -10.1875 1395.625 C-3.22477219 1390.88140314 3.73496303 1386.13352239 10.6875 1381.375 C11.84862305 1380.58029297 11.84862305 1380.58029297 13.03320312 1379.76953125 C15.3555663 1378.17982993 17.67780813 1376.58995154 20 1375 C30.92616866 1367.51910276 41.85912732 1360.04833749 52.80126953 1352.59082031 C61.87541967 1346.40542069 70.93863549 1340.20410858 80 1334 C90.92616866 1326.51910276 101.85912732 1319.04833749 112.80126953 1311.59082031 C121.87541967 1305.40542069 130.93863549 1299.20410858 140 1293 C150.92616866 1285.51910276 161.85912732 1278.04833749 172.80126953 1270.59082031 C181.87541967 1264.40542069 190.93863549 1258.20410858 200 1252 C210.92616866 1244.51910276 221.85912732 1237.04833749 232.80126953 1229.59082031 C241.87541967 1223.40542069 250.93863549 1217.20410858 260 1211 C270.92616866 1203.51910276 281.85912732 1196.04833749 292.80126953 1188.59082031 C301.87541967 1182.40542069 310.93863549 1176.20410858 320 1170 C330.92616866 1162.51910276 341.85912732 1155.04833749 352.80126953 1147.59082031 C361.87541967 1141.40542069 370.93863549 1135.20410858 380 1129 C390.92616866 1121.51910276 401.85912732 1114.04833749 412.80126953 1106.59082031 C421.87541967 1100.40542069 430.93863549 1094.20410858 440 1088 C450.92616866 1080.51910276 461.85912732 1073.04833749 472.80126953 1065.59082031 C481.87541967 1059.40542069 490.93863549 1053.20410858 500 1047 C510.92616866 1039.51910276 521.85912732 1032.04833749 532.80126953 1024.59082031 C541.0988093 1018.93479759 549.38735917 1013.26571155 557.67333984 1007.59277344 C562.40897522 1004.35087573 567.14576523 1001.11066523 571.88232422 997.87011719 C575.80342684 995.18738455 579.72427799 992.50428618 583.64453125 989.8203125 C593.02306169 983.40011045 602.40952577 976.99167758 611.80126953 970.59082031 C620.87541967 964.40542069 629.93863549 958.20410858 639 952 C649.92616866 944.51910276 660.85912732 937.04833749 671.80126953 929.59082031 C680.87541967 923.40542069 689.93863549 917.20410858 699 911 C709.92616866 903.51910276 720.85912732 896.04833749 731.80126953 888.59082031 C740.87541967 882.40542069 749.93863549 876.20410858 759 870 C769.92616866 862.51910276 780.85912732 855.04833749 791.80126953 847.59082031 C800.87541967 841.40542069 809.93863549 835.20410858 819 829 C829.92616866 821.51910276 840.85912732 814.04833749 851.80126953 806.59082031 C860.87541967 800.40542069 869.93863549 794.20410858 879 788 C889.92616866 780.51910276 900.85912732 773.04833749 911.80126953 765.59082031 C920.87541967 759.40542069 929.93863549 753.20410858 939 747 C949.92616866 739.51910276 960.85912732 732.04833749 971.80126953 724.59082031 C980.87541967 718.40542069 989.93863549 712.20410858 999 706 C1009.92616866 698.51910276 1020.85912732 691.04833749 1031.80126953 683.59082031 C1040.87541967 677.40542069 1049.93863549 671.20410858 1059 665 C1069.92616866 657.51910276 1080.85912732 650.04833749 1091.80126953 642.59082031 C1100.87541967 636.40542069 1109.93863549 630.20410858 1119 624 C1129.92616866 616.51910276 1140.85912732 609.04833749 1151.80126953 601.59082031 C1160.87541967 595.40542069 1169.93863549 589.20410858 1179 583 C1189.92616866 575.51910276 1200.85912732 568.04833749 1211.80126953 560.59082031 C1220.87541967 554.40542069 1229.93863549 548.20410858 1239 542 C1249.92616866 534.51910276 1260.85912732 527.04833749 1271.80126953 519.59082031 C1280.87541967 513.40542069 1289.93863549 507.20410858 1299 501 C1309.92616866 493.51910276 1320.85912732 486.04833749 1331.80126953 478.59082031 C1340.87541967 472.40542069 1349.93863549 466.20410858 1359 460 C1369.92616866 452.51910276 1380.85912732 445.04833749 1391.80126953 437.59082031 C1400.87541967 431.40542069 1409.93863549 425.20410858 1419 419 C1429.92616866 411.51910276 1440.85912732 404.04833749 1451.80126953 396.59082031 C1460.87541967 390.40542069 1469.93863549 384.20410858 1479 378 C1489.92616866 370.51910276 1500.85912732 363.04833749 1511.80126953 355.59082031 C1520.87541967 349.40542069 1529.93863549 343.20410858 1539 337 C1549.92616866 329.51910276 1560.85912732 322.04833749 1571.80126953 314.59082031 C1579.30571329 309.47541194 1586.80330424 304.35007011 1594.296875 299.21875 C1597.6177646 296.94493717 1600.94104904 294.6746694 1604.265625 292.40625 C1605.13098877 291.81537598 1605.99635254 291.22450195 1606.88793945 290.61572266 C1608.54483749 289.4844689 1610.20220109 288.35389663 1611.86010742 287.22412109 C1612.60623291 286.71445801 1613.3523584 286.20479492 1614.12109375 285.6796875 C1614.7752124 285.23351074 1615.42933105 284.78733398 1616.10327148 284.32763672 C1618.10069316 282.92951868 1620.04950428 281.46287179 1622 280 C1086.74 279.67 551.48 279.34 0 279 C0 186.93 0 94.86 0 0 Z " fill="#030304" transform="translate(854,827)"/>
</svg>
