<?xml version="1.0" encoding="UTF-8"?>
<svg version="1.1" xmlns="http://www.w3.org/2000/svg" width="3334" height="3334">
<path d="M0 0 C1100.22 0 2200.44 0 3334 0 C3334 1100.22 3334 2200.44 3334 3334 C2233.78 3334 1133.56 3334 0 3334 C0 2233.78 0 1133.56 0 0 Z " fill="#FDD117" transform="translate(0,0)"/>
<path d="M0 0 C536.58 0 1073.16 0 1626 0 C1626 203.61 1626 407.22 1626 617 C1609.95967371 628.45737592 1609.95967371 628.45737592 1604.125 632.4375 C1602.76431562 633.36978102 1601.40363875 634.30207299 1600.04296875 635.234375 C1599.36927246 635.69521484 1598.69557617 636.15605469 1598.00146484 636.63085938 C1587.12873886 644.06855727 1576.29976979 651.56755429 1565.48999023 659.09643555 C1559.38481851 663.34673127 1553.26593482 667.57583786 1547.13012695 671.78173828 C1541.29667652 675.78524635 1535.49221547 679.82998174 1529.6875 683.875 C1521.88781607 689.30928959 1514.06389694 694.70530126 1506.21044922 700.06152344 C1498.88756021 705.06244575 1491.61124243 710.12941965 1484.3359375 715.19921875 C1478.90281884 718.98416987 1473.46158863 722.75625534 1468 726.5 C1461.47917322 730.97020398 1454.98747584 735.48155122 1448.5 740 C1438.74085675 746.7963332 1428.95288565 753.54886375 1419.14355469 760.27246094 C1409.56428135 766.8403909 1400.0207879 773.45834977 1390.48999023 780.09643555 C1384.38698509 784.34522294 1378.27015803 788.57265896 1372.13671875 792.77734375 C1366.23933134 796.82504142 1360.36948137 800.91197692 1354.5 805 C1344.74085675 811.7963332 1334.95288565 818.54886375 1325.14355469 825.27246094 C1315.56428135 831.8403909 1306.0207879 838.45834977 1296.48999023 845.09643555 C1290.38698509 849.34522294 1284.27015803 853.57265896 1278.13671875 857.77734375 C1272.23933134 861.82504142 1266.36948137 865.91197692 1260.5 870 C1250.74085675 876.7963332 1240.95288565 883.54886375 1231.14355469 890.27246094 C1221.56428135 896.8403909 1212.0207879 903.45834977 1202.48999023 910.09643555 C1196.38698509 914.34522294 1190.27015803 918.57265896 1184.13671875 922.77734375 C1178.23933134 926.82504142 1172.36948137 930.91197692 1166.5 935 C1156.74085675 941.7963332 1146.95288565 948.54886375 1137.14355469 955.27246094 C1127.56428135 961.8403909 1118.0207879 968.45834977 1108.48999023 975.09643555 C1102.38698509 979.34522294 1096.27015803 983.57265896 1090.13671875 987.77734375 C1084.23933134 991.82504142 1078.36948137 995.91197692 1072.5 1000 C1062.74085675 1006.7963332 1052.95288565 1013.54886375 1043.14355469 1020.27246094 C1033.56428135 1026.8403909 1024.0207879 1033.45834977 1014.48999023 1040.09643555 C1008.38698509 1044.34522294 1002.27015803 1048.57265896 996.13671875 1052.77734375 C990.23933134 1056.82504142 984.36948137 1060.91197692 978.5 1065 C968.74085675 1071.7963332 958.95288565 1078.54886375 949.14355469 1085.27246094 C939.56428135 1091.8403909 930.0207879 1098.45834977 920.48999023 1105.09643555 C914.38698509 1109.34522294 908.27015803 1113.57265896 902.13671875 1117.77734375 C896.23933134 1121.82504142 890.36948137 1125.91197692 884.5 1130 C874.74085675 1136.7963332 864.95288565 1143.54886375 855.14355469 1150.27246094 C845.56428135 1156.8403909 836.0207879 1163.45834977 826.48999023 1170.09643555 C820.38698509 1174.34522294 814.27015803 1178.57265896 808.13671875 1182.77734375 C802.23933134 1186.82504142 796.36948137 1190.91197692 790.5 1195 C780.74085675 1201.7963332 770.95288565 1208.54886375 761.14355469 1215.27246094 C751.56428135 1221.8403909 742.0207879 1228.45834977 732.48999023 1235.09643555 C726.38698509 1239.34522294 720.27015803 1243.57265896 714.13671875 1247.77734375 C708.23933134 1251.82504142 702.36948137 1255.91197692 696.5 1260 C686.74085675 1266.7963332 676.95288565 1273.54886375 667.14355469 1280.27246094 C657.56428135 1286.8403909 648.0207879 1293.45834977 638.48999023 1300.09643555 C632.38698509 1304.34522294 626.27015803 1308.57265896 620.13671875 1312.77734375 C614.23933134 1316.82504142 608.36948137 1320.91197692 602.5 1325 C592.74085675 1331.7963332 582.95288565 1338.54886375 573.14355469 1345.27246094 C563.56428135 1351.8403909 554.0207879 1358.45834977 544.48999023 1365.09643555 C538.38698509 1369.34522294 532.27015803 1373.57265896 526.13671875 1377.77734375 C519.24239247 1382.50929478 512.38475604 1387.29386212 505.5234375 1392.07348633 C499.07747409 1396.56148835 492.61845215 1401.02954267 486.13476562 1405.46289062 C482.05076153 1408.25959487 478.02991985 1411.12148582 474 1414 C863.4 1414.33 1252.8 1414.66 1654 1415 C1654 1501.46 1654 1587.92 1654 1677 C1095.97 1677 537.94 1677 -37 1677 C-37 1590.54 -37 1504.08 -37 1415 C-18.81497797 1402.49779736 -18.81497797 1402.49779736 -10.1875 1396.625 C-3.22477219 1391.88140314 3.73496303 1387.13352239 10.6875 1382.375 C11.84862305 1381.58029297 11.84862305 1381.58029297 13.03320312 1380.76953125 C15.3555663 1379.17982993 17.67780813 1377.58995154 20 1376 C30.92616866 1368.51910276 41.85912732 1361.04833749 52.80126953 1353.59082031 C61.87541967 1347.40542069 70.93863549 1341.20410858 80 1335 C90.92616866 1327.51910276 101.85912732 1320.04833749 112.80126953 1312.59082031 C121.87541967 1306.40542069 130.93863549 1300.20410858 140 1294 C150.92616866 1286.51910276 161.85912732 1279.04833749 172.80126953 1271.59082031 C181.87541967 1265.40542069 190.93863549 1259.20410858 200 1253 C210.92616866 1245.51910276 221.85912732 1238.04833749 232.80126953 1230.59082031 C241.87541967 1224.40542069 250.93863549 1218.20410858 260 1212 C270.92616866 1204.51910276 281.85912732 1197.04833749 292.80126953 1189.59082031 C301.87541967 1183.40542069 310.93863549 1177.20410858 320 1171 C330.92616866 1163.51910276 341.85912732 1156.04833749 352.80126953 1148.59082031 C361.87541967 1142.40542069 370.93863549 1136.20410858 380 1130 C390.92616866 1122.51910276 401.85912732 1115.04833749 412.80126953 1107.59082031 C421.87541967 1101.40542069 430.93863549 1095.20410858 440 1089 C450.92616866 1081.51910276 461.85912732 1074.04833749 472.80126953 1066.59082031 C481.87541967 1060.40542069 490.93863549 1054.20410858 500 1048 C510.92616866 1040.51910276 521.85912732 1033.04833749 532.80126953 1025.59082031 C541.0988093 1019.93479759 549.38735917 1014.26571155 557.67333984 1008.59277344 C562.40897522 1005.35087573 567.14576523 1002.11066523 571.88232422 998.87011719 C575.80342684 996.18738455 579.72427799 993.50428618 583.64453125 990.8203125 C593.02306169 984.40011045 602.40952577 977.99167758 611.80126953 971.59082031 C620.87541967 965.40542069 629.93863549 959.20410858 639 953 C649.92616866 945.51910276 660.85912732 938.04833749 671.80126953 930.59082031 C680.87541967 924.40542069 689.93863549 918.20410858 699 912 C709.92616866 904.51910276 720.85912732 897.04833749 731.80126953 889.59082031 C740.87541967 883.40542069 749.93863549 877.20410858 759 871 C769.92616866 863.51910276 780.85912732 856.04833749 791.80126953 848.59082031 C800.87541967 842.40542069 809.93863549 836.20410858 819 830 C829.92616866 822.51910276 840.85912732 815.04833749 851.80126953 807.59082031 C860.87541967 801.40542069 869.93863549 795.20410858 879 789 C889.92616866 781.51910276 900.85912732 774.04833749 911.80126953 766.59082031 C920.87541967 760.40542069 929.93863549 754.20410858 939 748 C949.92616866 740.51910276 960.85912732 733.04833749 971.80126953 725.59082031 C980.87541967 719.40542069 989.93863549 713.20410858 999 707 C1009.92616866 699.51910276 1020.85912732 692.04833749 1031.80126953 684.59082031 C1040.87541967 678.40542069 1049.93863549 672.20410858 1059 666 C1069.92616866 658.51910276 1080.85912732 651.04833749 1091.80126953 643.59082031 C1100.87541967 637.40542069 1109.93863549 631.20410858 1119 625 C1129.92616866 617.51910276 1140.85912732 610.04833749 1151.80126953 602.59082031 C1160.87541967 596.40542069 1169.93863549 590.20410858 1179 584 C1189.92616866 576.51910276 1200.85912732 569.04833749 1211.80126953 561.59082031 C1220.87541967 555.40542069 1229.93863549 549.20410858 1239 543 C1249.92616866 535.51910276 1260.85912732 528.04833749 1271.80126953 520.59082031 C1280.87541967 514.40542069 1289.93863549 508.20410858 1299 502 C1309.92616866 494.51910276 1320.85912732 487.04833749 1331.80126953 479.59082031 C1340.87541967 473.40542069 1349.93863549 467.20410858 1359 461 C1369.92616866 453.51910276 1380.85912732 446.04833749 1391.80126953 438.59082031 C1400.87541967 432.40542069 1409.93863549 426.20410858 1419 420 C1429.92616866 412.51910276 1440.85912732 405.04833749 1451.80126953 397.59082031 C1460.87541967 391.40542069 1469.93863549 385.20410858 1479 379 C1489.92616866 371.51910276 1500.85912732 364.04833749 1511.80126953 356.59082031 C1520.87541967 350.40542069 1529.93863549 344.20410858 1539 338 C1549.92616866 330.51910276 1560.85912732 323.04833749 1571.80126953 315.59082031 C1579.30571329 310.47541194 1586.80330424 305.35007011 1594.296875 300.21875 C1597.6177646 297.94493717 1600.94104904 295.6746694 1604.265625 293.40625 C1605.13098877 292.81537598 1605.99635254 292.22450195 1606.88793945 291.61572266 C1608.54483749 290.4844689 1610.20220109 289.35389663 1611.86010742 288.22412109 C1612.60623291 287.71445801 1613.3523584 287.20479492 1614.12109375 286.6796875 C1614.7752124 286.23351074 1615.42933105 285.78733398 1616.10327148 285.32763672 C1618.10069316 283.92951868 1620.04950428 282.46287179 1622 281 C1086.74 280.67 551.48 280.34 0 280 C0 187.6 0 95.2 0 0 Z " fill="#030304" transform="translate(854,826)"/>
</svg>
